<svg width="110" height="110" viewBox="0 0 110 110" fill="none" xmlns="http://www.w3.org/2000/svg">
<mask id="mask0_48_4807" maskUnits="userSpaceOnUse" x="0" y="0" width="110" height="110">
<rect width="110" height="110" fill="#D9D9D9"/>
</mask>
<g mask="url(#mask0_48_4807)">
<path d="M46.1664 106.816C46.0064 103.343 46.0398 100.867 46.2598 97.3965C42.0998 99.0965 37.4998 98.3965 33.2131 97.6498C29.1031 96.9265 25.2598 95.5065 22.1564 92.6198C16.3331 87.1965 14.7864 78.7365 15.6198 71.1232C15.9531 68.0998 17.2398 63.1065 19.3898 57.5765L21.9431 53.9498C24.4431 49.8365 27.5731 46.0365 31.5264 43.2832C35.4798 40.5298 40.3164 38.9098 45.1098 39.3132C46.4431 39.4265 47.8198 39.7098 48.9398 40.4598C50.0598 41.2098 50.8931 42.4965 50.7964 43.8398L55.8364 46.7465C57.9798 45.2832 61.1331 46.4132 62.6198 48.5565C64.1064 50.6998 64.3097 53.4465 64.2197 56.0432C64.1297 58.6398 63.7964 61.2798 64.4031 63.8032C64.9264 65.8398 66.0231 67.6832 67.5664 69.1132C69.1098 70.5432 71.0298 71.4998 73.0998 71.8665L75.7064 71.7398C79.5298 68.3798 81.7798 67.9298 84.2898 69.1965C87.8631 70.9998 88.3998 74.8132 87.6231 78.0165C86.7831 81.5498 84.5431 84.5965 81.6698 86.7665C80.2197 87.8432 78.6397 88.7398 76.9697 89.4332C76.1497 89.7798 75.3131 90.0865 74.4631 90.3532C73.5064 90.6565 72.5398 90.6465 72.0898 91.5798C70.1098 95.7065 69.2664 99.6232 69.6531 104.183" fill="white"/>
<path d="M7.5 40L32.5 15L101 42L105 65L102 76.5L91.5 84.5H84L72 71.5L63 65V51L37 40L14.5 71.5H12.5L7.5 65L5 53L7.5 40Z" fill="white"/>
<path d="M64 15.9999L70.5 25.4999C74.5 23.0998 80.8333 26.4999 83.5 28.5C102.3 37.3 105.667 56.1667 105 64.5C105 77.7 96.3333 82 92 82.5H87C89 78.1 87.8333 74 87 72.5C84.2 64.1 76.8333 69 73.5 72.5C61.9 70.5 62.3333 58 64 52C64 45.6 58.3333 46 55.5 47L52 44.5C50 34 39.5 39.5 32 42C26 44 19.8333 54.8333 17.5 60L13 72.5C3.99998 63 4.49998 58 6.99998 46C9.49998 34 21.5 21.9999 37 14.9999C49.4 9.39989 60.1666 13.3332 64 15.9999Z" fill="#FFAA01"/>
<path fill-rule="evenodd" clip-rule="evenodd" d="M11.5799 73.493C11.8465 73.6097 12.1199 73.6664 12.3932 73.6664C12.7649 73.6664 13.1294 73.5612 13.4438 73.3679C13.0717 81.8732 15.6915 89.3245 20.7965 94.0797C23.8398 96.9097 27.7898 98.7197 32.8732 99.6163C36.0198 100.166 40.0998 100.876 44.1065 100.103C44.0398 101.713 44.0632 102.893 44.1698 105.24C44.2198 106.313 45.1032 107.15 46.1665 107.15C46.1965 107.15 46.2265 107.15 46.2632 107.136C47.3665 107.086 48.2198 106.15 48.1698 105.046C48.0098 101.606 48.0465 100.866 48.2599 97.513C48.3032 96.8263 47.9898 96.1663 47.4298 95.763C46.8698 95.363 46.1432 95.2763 45.5065 95.5363C41.9932 96.973 38.0165 96.4497 33.5632 95.673C29.2065 94.9063 26.0165 93.4697 23.5232 91.1497C18.8598 86.8097 16.7065 79.5863 17.6098 71.3363C17.8832 68.8663 18.9832 64.143 21.2565 58.2963C21.6565 57.2663 21.1465 56.1063 20.1165 55.7063C19.0865 55.3063 17.9265 55.8163 17.5265 56.8463C15.6122 61.7676 14.2181 66.6743 13.7244 70.1767C13.574 70.0428 13.4005 69.9295 13.2065 69.843C10.5599 68.663 9.07986 65.6697 8.30319 63.3597C5.71653 55.7297 7.00319 46.4364 11.7432 38.4997C15.8165 31.6797 22.3065 25.6464 31.0332 20.5664C38.1332 16.433 44.4032 14.383 50.1999 14.293C57.2099 14.1897 63.7499 17.3497 66.8765 22.353C67.4632 23.2897 68.6965 23.5764 69.6332 22.9897C70.5699 22.403 70.8565 21.1697 70.2699 20.233C66.3599 13.9697 58.6299 10.163 50.1399 10.293C43.6365 10.393 36.7299 12.6197 29.0199 17.1064C19.7032 22.5297 12.7332 29.0364 8.30986 36.4464C2.97986 45.3764 1.55986 55.9164 4.51652 64.6364C5.99652 69.033 8.43653 72.093 11.5799 73.493ZM89.7399 85.563C89.4132 85.563 89.0899 85.5497 88.7632 85.5263C87.9211 85.4626 87.2393 84.8831 87.0046 84.1214C85.8961 85.7034 84.5042 87.1443 82.8765 88.373C81.2832 89.5563 79.5565 90.5363 77.7365 91.2897C76.8732 91.653 75.9699 91.9863 75.0599 92.2697C74.7832 92.3563 74.5165 92.423 74.2832 92.4797C74.2498 92.488 74.2142 92.4967 74.1776 92.5056L74.1756 92.5061C74.052 92.5363 73.9179 92.5689 73.8232 92.5997C71.9065 96.5997 71.3132 98.103 71.6465 102.023C71.7399 103.123 70.9232 104.09 69.8232 104.183C69.7632 104.196 69.7065 104.2 69.6499 104.2C68.6232 104.2 67.7465 103.413 67.6599 102.366C67.2365 97.3463 68.2132 95.0497 70.2865 90.7297C71.0465 89.153 72.4832 88.8063 73.3432 88.5997C73.3826 88.5898 73.4215 88.5803 73.4599 88.5709L73.4602 88.5708C73.6035 88.5356 73.739 88.5024 73.8599 88.463C74.6532 88.213 75.4365 87.9263 76.1932 87.6063C77.7232 86.973 79.1599 86.1563 80.4799 85.1763C83.1399 83.1663 84.9932 80.463 85.6799 77.5697C86.0332 76.113 86.5132 72.573 83.3899 70.9963C82.0265 70.3063 80.6899 70.0363 77.0265 73.2563C76.2934 73.9011 75.2222 73.9114 74.4791 73.333C74.1154 73.6775 73.6254 73.883 73.1032 73.883C72.9865 73.883 72.8699 73.873 72.7499 73.853C70.2965 73.4164 68.0332 72.2897 66.2065 70.5964C64.3799 68.903 63.0865 66.7297 62.4665 64.3164C61.9099 61.9964 62.0299 59.7397 62.1465 57.553L62.1497 57.4905L62.1635 57.2266C62.1851 56.8132 62.2067 56.4015 62.2199 55.9897C62.2899 54.003 62.2099 51.493 60.9765 49.713C60.1165 48.473 58.1332 47.6164 56.9632 48.4164C56.0499 49.0397 54.8065 48.803 54.1832 47.893C53.5599 46.9797 53.7965 45.7364 54.7065 45.113C57.3099 43.3364 61.7699 43.843 64.2599 47.4364C66.1665 50.183 66.3065 53.5264 66.2165 56.133C66.1965 56.6797 66.1699 57.2264 66.1399 57.773C66.0332 59.7597 65.9332 61.633 66.3465 63.3564C66.7665 64.9964 67.6599 66.4964 68.9232 67.6697C70.1865 68.843 71.7499 69.6197 73.4465 69.923C73.7762 69.9817 74.0727 70.1182 74.3205 70.3104C74.3419 70.2898 74.364 70.2695 74.3865 70.2497C79.6465 65.6263 82.6865 66.1597 85.1898 67.423C89.0699 69.383 90.7465 73.6263 89.5665 78.4997C89.3161 79.5531 88.9515 80.5852 88.482 81.5817C88.6703 81.5397 88.8678 81.5244 89.0699 81.5397C94.7999 81.983 99.7399 76.563 101.663 70.983C103.843 64.6463 103.587 57.3497 100.943 50.4397C98.5632 44.2263 94.2465 38.3163 88.4532 33.3563C83.0799 28.7463 78.0865 26.7563 73.6065 27.4397C72.5132 27.6063 71.4932 26.8563 71.3265 25.7663C71.1599 24.6763 71.9099 23.653 72.9999 23.4863C78.6865 22.6163 84.7599 24.9163 91.0532 30.3197C97.3465 35.7097 102.06 42.173 104.677 49.0097C107.657 56.7964 107.93 65.0597 105.443 72.2863C104.183 75.9397 101.99 79.2763 99.2632 81.683C96.3665 84.2297 93.0932 85.5597 89.7399 85.563ZM20.8965 55.673C21.2199 55.8697 21.5765 55.963 21.9299 55.963C22.6065 55.963 23.2665 55.6197 23.6399 55.003C26.2799 50.6463 29.3132 47.263 32.6532 44.943C36.5099 42.2663 40.8699 40.9797 44.9299 41.323C46.2099 41.4297 47.1565 41.6963 47.8199 42.1397C48.4199 42.5397 48.8265 43.1997 48.7899 43.7097C48.7099 44.813 49.5399 45.7697 50.6399 45.8497C51.7465 45.9297 52.6999 45.103 52.7799 43.9997C52.9199 42.0497 51.8432 40.013 50.0365 38.8097C48.7799 37.9697 47.2632 37.503 45.2665 37.333C40.2865 36.913 34.9965 38.4463 30.3765 41.653C26.5699 44.293 23.1565 48.0863 20.2232 52.9263C19.6499 53.8697 19.9532 55.0997 20.8965 55.673ZM29.2632 66.7697C30.5518 66.7697 31.5965 65.5012 31.5965 63.9364C31.5965 62.3716 30.5518 61.103 29.2632 61.103C27.9745 61.103 26.9298 62.3716 26.9298 63.9364C26.9298 65.5012 27.9745 66.7697 29.2632 66.7697ZM42.9299 64.7197C42.9299 66.2845 41.8852 67.553 40.5965 67.553C39.3079 67.553 38.2632 66.2845 38.2632 64.7197C38.2632 63.1549 39.3079 61.8864 40.5965 61.8864C41.8852 61.8864 42.9299 63.1549 42.9299 64.7197Z" fill="black"/>
<path d="M34.4532 67.4031L26.4532 75.4031L34.4532 76.9031" stroke="black" stroke-width="3" stroke-linecap="round" stroke-linejoin="round"/>
<path d="M80.2528 16.7665L77.1302 8.03477C75.9728 4.79803 71.8669 3.82443 69.3794 6.19684L62.6687 12.5968C62.3625 12.8889 61.9294 13.0062 61.5176 12.9085L53.0618 10.9035C47.8893 9.67691 44.9148 16.5763 49.3577 19.4952L51.6418 20.9958C52.3141 21.4375 52.4003 22.39 51.8182 22.9451L49.8053 24.8648C46.5064 28.011 49.1034 33.5464 53.6315 33.0205L67.0429 31.4629C67.3342 31.429 67.6283 31.4988 67.8734 31.6598L79.1575 39.0734C82.9674 41.5764 87.7733 37.7964 86.2383 33.504L85.3016 30.8849C85.0308 30.1275 85.5354 29.3151 86.3344 29.2223L89.0492 28.907C94.3296 28.2938 94.7697 20.7935 89.5972 19.5669L81.1414 17.5618C80.7296 17.4642 80.3953 17.1649 80.2528 16.7665Z" fill="#8DC73F" stroke="black" stroke-width="3.5"/>
<circle cx="71.6923" cy="17.2893" r="4.70928" transform="rotate(-26.568 71.6923 17.2893)" fill="#50853B"/>
</g>
</svg>
